ISO-10303-21;
HEADER;
FILE_DESCRIPTION(('Open CASCADE Model'),'2;1');
FILE_NAME('Open CASCADE Shape Model','2026-06-18T16:47:26',('Author'),(
    'Open CASCADE'),'Open CASCADE STEP processor 7.9','Open CASCADE 7.9'
  ,'Unknown');
FILE_SCHEMA(('AUTOMOTIVE_DESIGN { 1 0 10303 214 1 1 1 1 }'));
ENDSEC;
DATA;
#1 = APPLICATION_PROTOCOL_DEFINITION('international standard',
  'automotive_design',2000,#2);
#2 = APPLICATION_CONTEXT(
  'core data for automotive mechanical design processes');
#3 = SHAPE_DEFINITION_REPRESENTATION(#4,#10);
#4 = PRODUCT_DEFINITION_SHAPE('','',#5);
#5 = PRODUCT_DEFINITION('design','',#6,#9);
#6 = PRODUCT_DEFINITION_FORMATION('','',#7);
#7 = PRODUCT('Open CASCADE STEP translator 7.9 47',
  'Open CASCADE STEP translator 7.9 47','',(#8));
#8 = PRODUCT_CONTEXT('',#2,'mechanical');
#9 = PRODUCT_DEFINITION_CONTEXT('part definition',#2,'design');
#10 = ADVANCED_BREP_SHAPE_REPRESENTATION('',(#11,#15),#572);
#11 = AXIS2_PLACEMENT_3D('',#12,#13,#14);
#12 = CARTESIAN_POINT('',(0.,0.,0.));
#13 = DIRECTION('',(0.,0.,1.));
#14 = DIRECTION('',(1.,0.,-0.));
#15 = MANIFOLD_SOLID_BREP('',#16);
#16 = CLOSED_SHELL('',(#17,#343,#445,#552,#556,#563));
#17 = ADVANCED_FACE('',(#18),#33,.T.);
#18 = FACE_BOUND('',#19,.T.);
#19 = EDGE_LOOP('',(#20,#51,#80,#109,#133,#155,#156,#219,#253,#311));
#20 = ORIENTED_EDGE('',*,*,#21,.T.);
#21 = EDGE_CURVE('',#22,#24,#26,.T.);
#22 = VERTEX_POINT('',#23);
#23 = CARTESIAN_POINT('',(-547.286,-425.297870672,444.785549658));
#24 = VERTEX_POINT('',#25);
#25 = CARTESIAN_POINT('',(-547.086,-425.49783124,444.781578356));
#26 = SEAM_CURVE('',#27,(#32,#44),.PCURVE_S1.);
#27 = CIRCLE('',#28,0.2);
#28 = AXIS2_PLACEMENT_3D('',#29,#30,#31);
#29 = CARTESIAN_POINT('',(-547.086,-425.297870672,444.785549658));
#30 = DIRECTION('',(0.,-1.985651310888E-02,0.999802840008));
#31 = DIRECTION('',(0.,0.999802840008,1.985651310888E-02));
#32 = PCURVE('',#33,#38);
#33 = TOROIDAL_SURFACE('',#34,10.8,0.2);
#34 = AXIS2_PLACEMENT_3D('',#35,#36,#37);
#35 = CARTESIAN_POINT('',(-547.086,-414.5,445.));
#36 = DIRECTION('',(1.,0.,0.));
#37 = DIRECTION('',(0.,-0.999802840008,-1.985651310888E-02));
#38 = DEFINITIONAL_REPRESENTATION('',(#39),#43);
#39 = LINE('',#40,#41);
#40 = CARTESIAN_POINT('',(0.,3.141592653224));
#41 = VECTOR('',#42,1.);
#42 = DIRECTION('',(0.,1.));
#43 = ( GEOMETRIC_REPRESENTATION_CONTEXT(2) 
PARAMETRIC_REPRESENTATION_CONTEXT() REPRESENTATION_CONTEXT('2D SPACE',''
  ) );
#44 = PCURVE('',#33,#45);
#45 = DEFINITIONAL_REPRESENTATION('',(#46),#50);
#46 = LINE('',#47,#48);
#47 = CARTESIAN_POINT('',(6.28318530722,3.141592653224));
#48 = VECTOR('',#49,1.);
#49 = DIRECTION('',(-4.594134538823E-13,1.));
#50 = ( GEOMETRIC_REPRESENTATION_CONTEXT(2) 
PARAMETRIC_REPRESENTATION_CONTEXT() REPRESENTATION_CONTEXT('2D SPACE',''
  ) );
#51 = ORIENTED_EDGE('',*,*,#52,.F.);
#52 = EDGE_CURVE('',#53,#24,#55,.T.);
#53 = VERTEX_POINT('',#54);
#54 = CARTESIAN_POINT('',(-547.086,-425.5,445.));
#55 = SURFACE_CURVE('',#56,(#61,#68),.PCURVE_S1.);
#56 = CIRCLE('',#57,11.);
#57 = AXIS2_PLACEMENT_3D('',#58,#59,#60);
#58 = CARTESIAN_POINT('',(-547.086,-414.5,445.));
#59 = DIRECTION('',(1.,0.,-0.));
#60 = DIRECTION('',(0.,0.,1.));
#61 = PCURVE('',#33,#62);
#62 = DEFINITIONAL_REPRESENTATION('',(#63),#67);
#63 = LINE('',#64,#65);
#64 = CARTESIAN_POINT('',(4.692531162203,6.28318530718));
#65 = VECTOR('',#66,1.);
#66 = DIRECTION('',(1.,0.));
#67 = ( GEOMETRIC_REPRESENTATION_CONTEXT(2) 
PARAMETRIC_REPRESENTATION_CONTEXT() REPRESENTATION_CONTEXT('2D SPACE',''
  ) );
#68 = PCURVE('',#69,#74);
#69 = CYLINDRICAL_SURFACE('',#70,11.);
#70 = AXIS2_PLACEMENT_3D('',#71,#72,#73);
#71 = CARTESIAN_POINT('',(-547.411,-414.5,445.));
#72 = DIRECTION('',(1.,0.,0.));
#73 = DIRECTION('',(0.,-1.,0.));
#74 = DEFINITIONAL_REPRESENTATION('',(#75),#79);
#75 = LINE('',#76,#77);
#76 = CARTESIAN_POINT('',(-1.570796326795,0.325));
#77 = VECTOR('',#78,1.);
#78 = DIRECTION('',(1.,0.));
#79 = ( GEOMETRIC_REPRESENTATION_CONTEXT(2) 
PARAMETRIC_REPRESENTATION_CONTEXT() REPRESENTATION_CONTEXT('2D SPACE',''
  ) );
#80 = ORIENTED_EDGE('',*,*,#81,.F.);
#81 = EDGE_CURVE('',#82,#53,#84,.T.);
#82 = VERTEX_POINT('',#83);
#83 = CARTESIAN_POINT('',(-547.086,-403.50216876,445.218421644));
#84 = SURFACE_CURVE('',#85,(#90,#97),.PCURVE_S1.);
#85 = CIRCLE('',#86,11.);
#86 = AXIS2_PLACEMENT_3D('',#87,#88,#89);
#87 = CARTESIAN_POINT('',(-547.086,-414.5,445.));
#88 = DIRECTION('',(1.,0.,0.));
#89 = DIRECTION('',(-0.,0.,1.));
#90 = PCURVE('',#33,#91);
#91 = DEFINITIONAL_REPRESENTATION('',(#92),#96);
#92 = LINE('',#93,#94);
#93 = CARTESIAN_POINT('',(-1.590654144959,6.28318530718));
#94 = VECTOR('',#95,1.);
#95 = DIRECTION('',(1.,0.));
#96 = ( GEOMETRIC_REPRESENTATION_CONTEXT(2) 
PARAMETRIC_REPRESENTATION_CONTEXT() REPRESENTATION_CONTEXT('2D SPACE',''
  ) );
#97 = PCURVE('',#98,#103);
#98 = CYLINDRICAL_SURFACE('',#99,11.);
#99 = AXIS2_PLACEMENT_3D('',#100,#101,#102);
#100 = CARTESIAN_POINT('',(-547.411,-414.5,445.));
#101 = DIRECTION('',(1.,0.,0.));
#102 = DIRECTION('',(0.,1.,-5.66553889765E-16));
#103 = DEFINITIONAL_REPRESENTATION('',(#104),#108);
#104 = LINE('',#105,#106);
#105 = CARTESIAN_POINT('',(-4.712388980385,0.325));
#106 = VECTOR('',#107,1.);
#107 = DIRECTION('',(1.,0.));
#108 = ( GEOMETRIC_REPRESENTATION_CONTEXT(2) 
PARAMETRIC_REPRESENTATION_CONTEXT() REPRESENTATION_CONTEXT('2D SPACE',''
  ) );
#109 = ORIENTED_EDGE('',*,*,#110,.F.);
#110 = EDGE_CURVE('',#111,#82,#113,.T.);
#111 = VERTEX_POINT('',#112);
#112 = CARTESIAN_POINT('',(-547.086,-403.5,445.));
#113 = SURFACE_CURVE('',#114,(#119,#126),.PCURVE_S1.);
#114 = CIRCLE('',#115,11.);
#115 = AXIS2_PLACEMENT_3D('',#116,#117,#118);
#116 = CARTESIAN_POINT('',(-547.086,-414.5,445.));
#117 = DIRECTION('',(1.,0.,0.));
#118 = DIRECTION('',(-0.,0.,1.));
#119 = PCURVE('',#33,#120);
#120 = DEFINITIONAL_REPRESENTATION('',(#121),#125);
#121 = LINE('',#122,#123);
#122 = CARTESIAN_POINT('',(-1.590654144977,6.28318530718));
#123 = VECTOR('',#124,1.);
#124 = DIRECTION('',(1.,0.));
#125 = ( GEOMETRIC_REPRESENTATION_CONTEXT(2) 
PARAMETRIC_REPRESENTATION_CONTEXT() REPRESENTATION_CONTEXT('2D SPACE',''
  ) );
#126 = PCURVE('',#98,#127);
#127 = DEFINITIONAL_REPRESENTATION('',(#128),#132);
#128 = LINE('',#129,#130);
#129 = CARTESIAN_POINT('',(-4.712388980385,0.325));
#130 = VECTOR('',#131,1.);
#131 = DIRECTION('',(1.,0.));
#132 = ( GEOMETRIC_REPRESENTATION_CONTEXT(2) 
PARAMETRIC_REPRESENTATION_CONTEXT() REPRESENTATION_CONTEXT('2D SPACE',''
  ) );
#133 = ORIENTED_EDGE('',*,*,#134,.F.);
#134 = EDGE_CURVE('',#24,#111,#135,.T.);
#135 = SURFACE_CURVE('',#136,(#141,#148),.PCURVE_S1.);
#136 = CIRCLE('',#137,11.);
#137 = AXIS2_PLACEMENT_3D('',#138,#139,#140);
#138 = CARTESIAN_POINT('',(-547.086,-414.5,445.));
#139 = DIRECTION('',(1.,0.,-0.));
#140 = DIRECTION('',(0.,0.,1.));
#141 = PCURVE('',#33,#142);
#142 = DEFINITIONAL_REPRESENTATION('',(#143),#147);
#143 = LINE('',#144,#145);
#144 = CARTESIAN_POINT('',(-1.590654144959,6.28318530718));
#145 = VECTOR('',#146,1.);
#146 = DIRECTION('',(1.,0.));
#147 = ( GEOMETRIC_REPRESENTATION_CONTEXT(2) 
PARAMETRIC_REPRESENTATION_CONTEXT() REPRESENTATION_CONTEXT('2D SPACE',''
  ) );
#148 = PCURVE('',#69,#149);
#149 = DEFINITIONAL_REPRESENTATION('',(#150),#154);
#150 = LINE('',#151,#152);
#151 = CARTESIAN_POINT('',(-1.570796326795,0.325));
#152 = VECTOR('',#153,1.);
#153 = DIRECTION('',(1.,0.));
#154 = ( GEOMETRIC_REPRESENTATION_CONTEXT(2) 
PARAMETRIC_REPRESENTATION_CONTEXT() REPRESENTATION_CONTEXT('2D SPACE',''
  ) );
#155 = ORIENTED_EDGE('',*,*,#21,.F.);
#156 = ORIENTED_EDGE('',*,*,#157,.F.);
#157 = EDGE_CURVE('',#158,#22,#160,.T.);
#158 = VERTEX_POINT('',#159);
#159 = CARTESIAN_POINT('',(-547.286,-403.7,445.));
#160 = SURFACE_CURVE('',#161,(#183,#189),.PCURVE_S1.);
#161 = B_SPLINE_CURVE_WITH_KNOTS('',5,(#162,#163,#164,#165,#166,#167,
    #168,#169,#170,#171,#172,#173,#174,#175,#176,#177,#178,#179,#180,
    #181,#182),.UNSPECIFIED.,.F.,.F.,(6,3,3,3,3,3,6),(0.,7.96883245008,
    15.9376649082,23.9064973601,31.8753297921,39.8441622383,
    47.6791936913),.UNSPECIFIED.);
#162 = CARTESIAN_POINT('',(-547.286,-403.699999999,445.));
#163 = CARTESIAN_POINT('',(-547.286,-403.699999999,443.873036907));
#164 = CARTESIAN_POINT('',(-547.286,-403.846996042,442.746074296));
#165 = CARTESIAN_POINT('',(-547.286,-404.141040833,441.644609755));
#166 = CARTESIAN_POINT('',(-547.286,-405.009516117,439.544045635));
#167 = CARTESIAN_POINT('',(-547.286,-406.387742563,437.736532945));
#168 = CARTESIAN_POINT('',(-547.286,-407.191631332,436.928170831));
#169 = CARTESIAN_POINT('',(-547.286,-408.991470476,435.539935262));
#170 = CARTESIAN_POINT('',(-547.286,-411.087181675,434.659818887));
#171 = CARTESIAN_POINT('',(-547.286,-412.186997558,434.359666432));
#172 = CARTESIAN_POINT('',(-547.286,-414.439258728,434.053172475));
#173 = CARTESIAN_POINT('',(-547.286,-416.694780529,434.334653647));
#174 = CARTESIAN_POINT('',(-547.286,-417.797859693,434.622582201));
#175 = CARTESIAN_POINT('',(-547.286,-419.903210393,435.479388685));
#176 = CARTESIAN_POINT('',(-547.286,-421.718342639,436.84756454));
#177 = CARTESIAN_POINT('',(-547.286,-422.531152863,437.646955568));
#178 = CARTESIAN_POINT('',(-547.286,-423.917615578,439.424018848));
#179 = CARTESIAN_POINT('',(-547.286,-424.806076834,441.494774971));
#180 = CARTESIAN_POINT('',(-547.286,-425.11179123,442.57272294));
#181 = CARTESIAN_POINT('',(-547.286,-425.275868759,443.67772721));
#182 = CARTESIAN_POINT('',(-547.286,-425.29787067,444.785549658));
#183 = PCURVE('',#33,#184);
#184 = DEFINITIONAL_REPRESENTATION('',(#185),#188);
#185 = B_SPLINE_CURVE_WITH_KNOTS('',1,(#186,#187),.UNSPECIFIED.,.F.,.F.,
  (2,2),(0.,47.6791936913),.PIECEWISE_BEZIER_KNOTS.);
#186 = CARTESIAN_POINT('',(3.121734835408,4.712388985385));
#187 = CARTESIAN_POINT('',(0.,4.712388970021));
#188 = ( GEOMETRIC_REPRESENTATION_CONTEXT(2) 
PARAMETRIC_REPRESENTATION_CONTEXT() REPRESENTATION_CONTEXT('2D SPACE',''
  ) );
#189 = PCURVE('',#190,#195);
#190 = PLANE('',#191);
#191 = AXIS2_PLACEMENT_3D('',#192,#193,#194);
#192 = CARTESIAN_POINT('',(-547.286,-414.5,445.));
#193 = DIRECTION('',(1.,-0.,0.));
#194 = DIRECTION('',(0.,0.,-1.));
#195 = DEFINITIONAL_REPRESENTATION('',(#196),#218);
#196 = B_SPLINE_CURVE_WITH_KNOTS('',5,(#197,#198,#199,#200,#201,#202,
    #203,#204,#205,#206,#207,#208,#209,#210,#211,#212,#213,#214,#215,
    #216,#217),.UNSPECIFIED.,.F.,.F.,(6,3,3,3,3,3,6),(0.,7.96883245008,
    15.9376649082,23.9064973601,31.8753297921,39.8441622383,
    47.6791936913),.UNSPECIFIED.);
#197 = CARTESIAN_POINT('',(0.,10.800000001));
#198 = CARTESIAN_POINT('',(1.126963093,10.800000001));
#199 = CARTESIAN_POINT('',(2.253925704,10.653003958));
#200 = CARTESIAN_POINT('',(3.355390245,10.358959167));
#201 = CARTESIAN_POINT('',(5.455954365,9.490483883));
#202 = CARTESIAN_POINT('',(7.263467055,8.112257437));
#203 = CARTESIAN_POINT('',(8.071829169,7.308368668));
#204 = CARTESIAN_POINT('',(9.460064738,5.508529524));
#205 = CARTESIAN_POINT('',(10.340181113,3.412818325));
#206 = CARTESIAN_POINT('',(10.640333568,2.313002442));
#207 = CARTESIAN_POINT('',(10.946827525,6.074127199997E-02));
#208 = CARTESIAN_POINT('',(10.665346353,-2.194780529));
#209 = CARTESIAN_POINT('',(10.377417799,-3.297859693));
#210 = CARTESIAN_POINT('',(9.520611315,-5.403210393));
#211 = CARTESIAN_POINT('',(8.15243546,-7.218342639));
#212 = CARTESIAN_POINT('',(7.353044432,-8.031152863));
#213 = CARTESIAN_POINT('',(5.575981152,-9.417615578));
#214 = CARTESIAN_POINT('',(3.505225029,-10.306076834));
#215 = CARTESIAN_POINT('',(2.42727706,-10.61179123));
#216 = CARTESIAN_POINT('',(1.32227279,-10.775868759));
#217 = CARTESIAN_POINT('',(0.214450342,-10.79787067));
#218 = ( GEOMETRIC_REPRESENTATION_CONTEXT(2) 
PARAMETRIC_REPRESENTATION_CONTEXT() REPRESENTATION_CONTEXT('2D SPACE',''
  ) );
#219 = ORIENTED_EDGE('',*,*,#220,.F.);
#220 = EDGE_CURVE('',#221,#158,#223,.T.);
#221 = VERTEX_POINT('',#222);
#222 = CARTESIAN_POINT('',(-547.286,-403.702129328,445.214450342));
#223 = SURFACE_CURVE('',#224,(#234,#240),.PCURVE_S1.);
#224 = B_SPLINE_CURVE_WITH_KNOTS('',5,(#225,#226,#227,#228,#229,#230,
    #231,#232,#233),.UNSPECIFIED.,.F.,.F.,(6,3,6),(47.6791936912,
    47.8129946898,47.982491765),.UNSPECIFIED.);
#225 = CARTESIAN_POINT('',(-547.286,-403.70212933,445.214450342));
#226 = CARTESIAN_POINT('',(-547.286,-403.701753597,445.195531751));
#227 = CARTESIAN_POINT('',(-547.286,-403.701419298,445.176612339));
#228 = CARTESIAN_POINT('',(-547.286,-403.701126436,445.157692226));
#229 = CARTESIAN_POINT('',(-547.286,-403.70055651,445.114803084));
#230 = CARTESIAN_POINT('',(-547.286,-403.70019951,445.07191158));
#231 = CARTESIAN_POINT('',(-547.286,-403.700066502,445.047941013));
#232 = CARTESIAN_POINT('',(-547.286,-403.699999999,445.023970506));
#233 = CARTESIAN_POINT('',(-547.286,-403.699999999,445.));
#234 = PCURVE('',#33,#235);
#235 = DEFINITIONAL_REPRESENTATION('',(#236),#239);
#236 = B_SPLINE_CURVE_WITH_KNOTS('',1,(#237,#238),.UNSPECIFIED.,.F.,.F.,
  (2,2),(47.6791936912,47.982491765),.PIECEWISE_BEZIER_KNOTS.);
#237 = CARTESIAN_POINT('',(3.141592653633,4.712388970021));
#238 = CARTESIAN_POINT('',(3.121734835408,4.712388985385));
#239 = ( GEOMETRIC_REPRESENTATION_CONTEXT(2) 
PARAMETRIC_REPRESENTATION_CONTEXT() REPRESENTATION_CONTEXT('2D SPACE',''
  ) );
#240 = PCURVE('',#190,#241);
#241 = DEFINITIONAL_REPRESENTATION('',(#242),#252);
#242 = B_SPLINE_CURVE_WITH_KNOTS('',5,(#243,#244,#245,#246,#247,#248,
    #249,#250,#251),.UNSPECIFIED.,.F.,.F.,(6,3,6),(47.6791936912,
    47.8129946898,47.982491765),.UNSPECIFIED.);
#243 = CARTESIAN_POINT('',(-0.214450342,10.79787067));
#244 = CARTESIAN_POINT('',(-0.195531751,10.798246403));
#245 = CARTESIAN_POINT('',(-0.176612339,10.798580702));
#246 = CARTESIAN_POINT('',(-0.157692226,10.798873564));
#247 = CARTESIAN_POINT('',(-0.114803084,10.79944349));
#248 = CARTESIAN_POINT('',(-7.191158000001E-02,10.79980049));
#249 = CARTESIAN_POINT('',(-4.794101300001E-02,10.799933498));
#250 = CARTESIAN_POINT('',(-2.397050600001E-02,10.800000001));
#251 = CARTESIAN_POINT('',(0.,10.800000001));
#252 = ( GEOMETRIC_REPRESENTATION_CONTEXT(2) 
PARAMETRIC_REPRESENTATION_CONTEXT() REPRESENTATION_CONTEXT('2D SPACE',''
  ) );
#253 = ORIENTED_EDGE('',*,*,#254,.F.);
#254 = EDGE_CURVE('',#255,#221,#257,.T.);
#255 = VERTEX_POINT('',#256);
#256 = CARTESIAN_POINT('',(-547.286,-425.3,445.));
#257 = SURFACE_CURVE('',#258,(#280,#286),.PCURVE_S1.);
#258 = B_SPLINE_CURVE_WITH_KNOTS('',5,(#259,#260,#261,#262,#263,#264,
    #265,#266,#267,#268,#269,#270,#271,#272,#273,#274,#275,#276,#277,
    #278,#279),.UNSPECIFIED.,.F.,.F.,(6,3,3,3,3,3,6),(0.,7.9688324501,
    15.9376649082,23.90649736,31.875329792,39.8441622382,47.6791936912),
  .UNSPECIFIED.);
#259 = CARTESIAN_POINT('',(-547.286,-425.300000001,445.));
#260 = CARTESIAN_POINT('',(-547.286,-425.300000001,446.126963093));
#261 = CARTESIAN_POINT('',(-547.286,-425.153003958,447.253925704));
#262 = CARTESIAN_POINT('',(-547.286,-424.858959167,448.355390245));
#263 = CARTESIAN_POINT('',(-547.286,-423.990483883,450.455954365));
#264 = CARTESIAN_POINT('',(-547.286,-422.612257437,452.263467055));
#265 = CARTESIAN_POINT('',(-547.286,-421.808368668,453.071829169));
#266 = CARTESIAN_POINT('',(-547.286,-420.008529524,454.460064738));
#267 = CARTESIAN_POINT('',(-547.286,-417.912818325,455.340181113));
#268 = CARTESIAN_POINT('',(-547.286,-416.813002442,455.640333568));
#269 = CARTESIAN_POINT('',(-547.286,-414.560741272,455.946827525));
#270 = CARTESIAN_POINT('',(-547.286,-412.305219471,455.665346353));
#271 = CARTESIAN_POINT('',(-547.286,-411.202140307,455.377417799));
#272 = CARTESIAN_POINT('',(-547.286,-409.096789607,454.520611315));
#273 = CARTESIAN_POINT('',(-547.286,-407.281657361,453.15243546));
#274 = CARTESIAN_POINT('',(-547.286,-406.468847137,452.353044432));
#275 = CARTESIAN_POINT('',(-547.286,-405.082384422,450.575981152));
#276 = CARTESIAN_POINT('',(-547.286,-404.193923166,448.505225029));
#277 = CARTESIAN_POINT('',(-547.286,-403.88820877,447.42727706));
#278 = CARTESIAN_POINT('',(-547.286,-403.724131241,446.32227279));
#279 = CARTESIAN_POINT('',(-547.286,-403.70212933,445.214450342));
#280 = PCURVE('',#33,#281);
#281 = DEFINITIONAL_REPRESENTATION('',(#282),#285);
#282 = B_SPLINE_CURVE_WITH_KNOTS('',1,(#283,#284),.UNSPECIFIED.,.F.,.F.,
  (2,2),(0.,47.6791936912),.PIECEWISE_BEZIER_KNOTS.);
#283 = CARTESIAN_POINT('',(6.263327488998,4.712388985384));
#284 = CARTESIAN_POINT('',(3.14159265359,4.712388970021));
#285 = ( GEOMETRIC_REPRESENTATION_CONTEXT(2) 
PARAMETRIC_REPRESENTATION_CONTEXT() REPRESENTATION_CONTEXT('2D SPACE',''
  ) );
#286 = PCURVE('',#190,#287);
#287 = DEFINITIONAL_REPRESENTATION('',(#288),#310);
#288 = B_SPLINE_CURVE_WITH_KNOTS('',5,(#289,#290,#291,#292,#293,#294,
    #295,#296,#297,#298,#299,#300,#301,#302,#303,#304,#305,#306,#307,
    #308,#309),.UNSPECIFIED.,.F.,.F.,(6,3,3,3,3,3,6),(0.,7.9688324501,
    15.9376649082,23.90649736,31.875329792,39.8441622382,47.6791936912),
  .UNSPECIFIED.);
#289 = CARTESIAN_POINT('',(0.,-10.800000001));
#290 = CARTESIAN_POINT('',(-1.126963093,-10.800000001));
#291 = CARTESIAN_POINT('',(-2.253925704,-10.653003958));
#292 = CARTESIAN_POINT('',(-3.355390245,-10.358959167));
#293 = CARTESIAN_POINT('',(-5.455954365,-9.490483883));
#294 = CARTESIAN_POINT('',(-7.263467055,-8.112257437));
#295 = CARTESIAN_POINT('',(-8.071829169,-7.308368668));
#296 = CARTESIAN_POINT('',(-9.460064738,-5.508529524));
#297 = CARTESIAN_POINT('',(-10.340181113,-3.412818325));
#298 = CARTESIAN_POINT('',(-10.640333568,-2.313002442));
#299 = CARTESIAN_POINT('',(-10.946827525,-6.074127199997E-02));
#300 = CARTESIAN_POINT('',(-10.665346353,2.194780529));
#301 = CARTESIAN_POINT('',(-10.377417799,3.297859693));
#302 = CARTESIAN_POINT('',(-9.520611315,5.403210393));
#303 = CARTESIAN_POINT('',(-8.15243546,7.218342639));
#304 = CARTESIAN_POINT('',(-7.353044432,8.031152863));
#305 = CARTESIAN_POINT('',(-5.575981152,9.417615578));
#306 = CARTESIAN_POINT('',(-3.505225029,10.306076834));
#307 = CARTESIAN_POINT('',(-2.42727706,10.61179123));
#308 = CARTESIAN_POINT('',(-1.32227279,10.775868759));
#309 = CARTESIAN_POINT('',(-0.214450342,10.79787067));
#310 = ( GEOMETRIC_REPRESENTATION_CONTEXT(2) 
PARAMETRIC_REPRESENTATION_CONTEXT() REPRESENTATION_CONTEXT('2D SPACE',''
  ) );
#311 = ORIENTED_EDGE('',*,*,#312,.F.);
#312 = EDGE_CURVE('',#22,#255,#313,.T.);
#313 = SURFACE_CURVE('',#314,(#324,#330),.PCURVE_S1.);
#314 = B_SPLINE_CURVE_WITH_KNOTS('',5,(#315,#316,#317,#318,#319,#320,
    #321,#322,#323),.UNSPECIFIED.,.F.,.F.,(6,3,6),(47.6791936913,
    47.81299469,47.9824917651),.UNSPECIFIED.);
#315 = CARTESIAN_POINT('',(-547.286,-425.29787067,444.785549658));
#316 = CARTESIAN_POINT('',(-547.286,-425.298246403,444.804468249));
#317 = CARTESIAN_POINT('',(-547.286,-425.298580702,444.823387661));
#318 = CARTESIAN_POINT('',(-547.286,-425.298873564,444.842307774));
#319 = CARTESIAN_POINT('',(-547.286,-425.29944349,444.885196916));
#320 = CARTESIAN_POINT('',(-547.286,-425.29980049,444.92808842));
#321 = CARTESIAN_POINT('',(-547.286,-425.299933498,444.952058987));
#322 = CARTESIAN_POINT('',(-547.286,-425.300000001,444.976029494));
#323 = CARTESIAN_POINT('',(-547.286,-425.300000001,445.));
#324 = PCURVE('',#33,#325);
#325 = DEFINITIONAL_REPRESENTATION('',(#326),#329);
#326 = B_SPLINE_CURVE_WITH_KNOTS('',1,(#327,#328),.UNSPECIFIED.,.F.,.F.,
  (2,2),(47.6791936913,47.9824917651),.PIECEWISE_BEZIER_KNOTS.);
#327 = CARTESIAN_POINT('',(6.283185307223,4.712388970021));
#328 = CARTESIAN_POINT('',(6.263327488998,4.712388985384));
#329 = ( GEOMETRIC_REPRESENTATION_CONTEXT(2) 
PARAMETRIC_REPRESENTATION_CONTEXT() REPRESENTATION_CONTEXT('2D SPACE',''
  ) );
#330 = PCURVE('',#190,#331);
#331 = DEFINITIONAL_REPRESENTATION('',(#332),#342);
#332 = B_SPLINE_CURVE_WITH_KNOTS('',5,(#333,#334,#335,#336,#337,#338,
    #339,#340,#341),.UNSPECIFIED.,.F.,.F.,(6,3,6),(47.6791936913,
    47.81299469,47.9824917651),.UNSPECIFIED.);
#333 = CARTESIAN_POINT('',(0.214450342,-10.79787067));
#334 = CARTESIAN_POINT('',(0.195531751,-10.798246403));
#335 = CARTESIAN_POINT('',(0.176612339,-10.798580702));
#336 = CARTESIAN_POINT('',(0.157692226,-10.798873564));
#337 = CARTESIAN_POINT('',(0.114803084,-10.79944349));
#338 = CARTESIAN_POINT('',(7.191158000001E-02,-10.79980049));
#339 = CARTESIAN_POINT('',(4.794101300001E-02,-10.799933498));
#340 = CARTESIAN_POINT('',(2.397050600001E-02,-10.800000001));
#341 = CARTESIAN_POINT('',(0.,-10.800000001));
#342 = ( GEOMETRIC_REPRESENTATION_CONTEXT(2) 
PARAMETRIC_REPRESENTATION_CONTEXT() REPRESENTATION_CONTEXT('2D SPACE',''
  ) );
#343 = ADVANCED_FACE('',(#344),#98,.T.);
#344 = FACE_BOUND('',#345,.T.);
#345 = EDGE_LOOP('',(#346,#369,#370,#371,#394,#423));
#346 = ORIENTED_EDGE('',*,*,#347,.F.);
#347 = EDGE_CURVE('',#111,#348,#350,.T.);
#348 = VERTEX_POINT('',#349);
#349 = CARTESIAN_POINT('',(-544.986,-403.5,445.));
#350 = SURFACE_CURVE('',#351,(#355,#362),.PCURVE_S1.);
#351 = LINE('',#352,#353);
#352 = CARTESIAN_POINT('',(-547.411,-403.5,445.));
#353 = VECTOR('',#354,1.);
#354 = DIRECTION('',(1.,0.,0.));
#355 = PCURVE('',#98,#356);
#356 = DEFINITIONAL_REPRESENTATION('',(#357),#361);
#357 = LINE('',#358,#359);
#358 = CARTESIAN_POINT('',(0.,0.));
#359 = VECTOR('',#360,1.);
#360 = DIRECTION('',(0.,1.));
#361 = ( GEOMETRIC_REPRESENTATION_CONTEXT(2) 
PARAMETRIC_REPRESENTATION_CONTEXT() REPRESENTATION_CONTEXT('2D SPACE',''
  ) );
#362 = PCURVE('',#69,#363);
#363 = DEFINITIONAL_REPRESENTATION('',(#364),#368);
#364 = LINE('',#365,#366);
#365 = CARTESIAN_POINT('',(3.14159265359,0.));
#366 = VECTOR('',#367,1.);
#367 = DIRECTION('',(0.,1.));
#368 = ( GEOMETRIC_REPRESENTATION_CONTEXT(2) 
PARAMETRIC_REPRESENTATION_CONTEXT() REPRESENTATION_CONTEXT('2D SPACE',''
  ) );
#369 = ORIENTED_EDGE('',*,*,#110,.T.);
#370 = ORIENTED_EDGE('',*,*,#81,.T.);
#371 = ORIENTED_EDGE('',*,*,#372,.T.);
#372 = EDGE_CURVE('',#53,#373,#375,.T.);
#373 = VERTEX_POINT('',#374);
#374 = CARTESIAN_POINT('',(-544.986,-425.5,445.));
#375 = SURFACE_CURVE('',#376,(#380,#387),.PCURVE_S1.);
#376 = LINE('',#377,#378);
#377 = CARTESIAN_POINT('',(-547.411,-425.5,445.));
#378 = VECTOR('',#379,1.);
#379 = DIRECTION('',(1.,0.,0.));
#380 = PCURVE('',#98,#381);
#381 = DEFINITIONAL_REPRESENTATION('',(#382),#386);
#382 = LINE('',#383,#384);
#383 = CARTESIAN_POINT('',(3.14159265359,0.));
#384 = VECTOR('',#385,1.);
#385 = DIRECTION('',(0.,1.));
#386 = ( GEOMETRIC_REPRESENTATION_CONTEXT(2) 
PARAMETRIC_REPRESENTATION_CONTEXT() REPRESENTATION_CONTEXT('2D SPACE',''
  ) );
#387 = PCURVE('',#69,#388);
#388 = DEFINITIONAL_REPRESENTATION('',(#389),#393);
#389 = LINE('',#390,#391);
#390 = CARTESIAN_POINT('',(0.,0.));
#391 = VECTOR('',#392,1.);
#392 = DIRECTION('',(0.,1.));
#393 = ( GEOMETRIC_REPRESENTATION_CONTEXT(2) 
PARAMETRIC_REPRESENTATION_CONTEXT() REPRESENTATION_CONTEXT('2D SPACE',''
  ) );
#394 = ORIENTED_EDGE('',*,*,#395,.F.);
#395 = EDGE_CURVE('',#396,#373,#398,.T.);
#396 = VERTEX_POINT('',#397);
#397 = CARTESIAN_POINT('',(-544.986,-403.500993631,445.147847548));
#398 = SURFACE_CURVE('',#399,(#404,#411),.PCURVE_S1.);
#399 = CIRCLE('',#400,11.);
#400 = AXIS2_PLACEMENT_3D('',#401,#402,#403);
#401 = CARTESIAN_POINT('',(-544.985999999,-414.5,445.));
#402 = DIRECTION('',(1.,0.,0.));
#403 = DIRECTION('',(-0.,0.,1.));
#404 = PCURVE('',#98,#405);
#405 = DEFINITIONAL_REPRESENTATION('',(#406),#410);
#406 = LINE('',#407,#408);
#407 = CARTESIAN_POINT('',(-4.712388980385,2.425000001));
#408 = VECTOR('',#409,1.);
#409 = DIRECTION('',(1.,0.));
#410 = ( GEOMETRIC_REPRESENTATION_CONTEXT(2) 
PARAMETRIC_REPRESENTATION_CONTEXT() REPRESENTATION_CONTEXT('2D SPACE',''
  ) );
#411 = PCURVE('',#412,#417);
#412 = TOROIDAL_SURFACE('',#413,10.8,0.2);
#413 = AXIS2_PLACEMENT_3D('',#414,#415,#416);
#414 = CARTESIAN_POINT('',(-544.986,-414.5,445.));
#415 = DIRECTION('',(1.,0.,0.));
#416 = DIRECTION('',(0.,-0.999909669898,-1.344068619498E-02));
#417 = DEFINITIONAL_REPRESENTATION('',(#418),#422);
#418 = LINE('',#419,#420);
#419 = CARTESIAN_POINT('',(-1.58423741769,4.999947123073E-09));
#420 = VECTOR('',#421,1.);
#421 = DIRECTION('',(1.,-9.4148054975E-21));
#422 = ( GEOMETRIC_REPRESENTATION_CONTEXT(2) 
PARAMETRIC_REPRESENTATION_CONTEXT() REPRESENTATION_CONTEXT('2D SPACE',''
  ) );
#423 = ORIENTED_EDGE('',*,*,#424,.F.);
#424 = EDGE_CURVE('',#348,#396,#425,.T.);
#425 = SURFACE_CURVE('',#426,(#431,#438),.PCURVE_S1.);
#426 = CIRCLE('',#427,11.);
#427 = AXIS2_PLACEMENT_3D('',#428,#429,#430);
#428 = CARTESIAN_POINT('',(-544.985999999,-414.5,445.));
#429 = DIRECTION('',(1.,0.,0.));
#430 = DIRECTION('',(-0.,0.,1.));
#431 = PCURVE('',#98,#432);
#432 = DEFINITIONAL_REPRESENTATION('',(#433),#437);
#433 = LINE('',#434,#435);
#434 = CARTESIAN_POINT('',(-4.712388980385,2.425000001));
#435 = VECTOR('',#436,1.);
#436 = DIRECTION('',(1.,0.));
#437 = ( GEOMETRIC_REPRESENTATION_CONTEXT(2) 
PARAMETRIC_REPRESENTATION_CONTEXT() REPRESENTATION_CONTEXT('2D SPACE',''
  ) );
#438 = PCURVE('',#412,#439);
#439 = DEFINITIONAL_REPRESENTATION('',(#440),#444);
#440 = LINE('',#441,#442);
#441 = CARTESIAN_POINT('',(-1.584237417704,4.999947120506E-09));
#442 = VECTOR('',#443,1.);
#443 = DIRECTION('',(1.,5.297464891839E-19));
#444 = ( GEOMETRIC_REPRESENTATION_CONTEXT(2) 
PARAMETRIC_REPRESENTATION_CONTEXT() REPRESENTATION_CONTEXT('2D SPACE',''
  ) );
#445 = ADVANCED_FACE('',(#446),#412,.T.);
#446 = FACE_BOUND('',#447,.T.);
#447 = EDGE_LOOP('',(#448,#474,#505,#506,#528,#529,#530));
#448 = ORIENTED_EDGE('',*,*,#449,.T.);
#449 = EDGE_CURVE('',#450,#452,#454,.T.);
#450 = VERTEX_POINT('',#451);
#451 = CARTESIAN_POINT('',(-544.986,-425.499006369,444.852152452));
#452 = VERTEX_POINT('',#453);
#453 = CARTESIAN_POINT('',(-544.786,-425.299024435,444.854840589));
#454 = SEAM_CURVE('',#455,(#460,#467),.PCURVE_S1.);
#455 = CIRCLE('',#456,0.2);
#456 = AXIS2_PLACEMENT_3D('',#457,#458,#459);
#457 = CARTESIAN_POINT('',(-544.986,-425.299024435,444.854840589));
#458 = DIRECTION('',(0.,-1.344068619498E-02,0.999909669898));
#459 = DIRECTION('',(0.,0.999909669898,1.344068619498E-02));
#460 = PCURVE('',#412,#461);
#461 = DEFINITIONAL_REPRESENTATION('',(#462),#466);
#462 = LINE('',#463,#464);
#463 = CARTESIAN_POINT('',(0.,-3.14159265359));
#464 = VECTOR('',#465,1.);
#465 = DIRECTION('',(0.,1.));
#466 = ( GEOMETRIC_REPRESENTATION_CONTEXT(2) 
PARAMETRIC_REPRESENTATION_CONTEXT() REPRESENTATION_CONTEXT('2D SPACE',''
  ) );
#467 = PCURVE('',#412,#468);
#468 = DEFINITIONAL_REPRESENTATION('',(#469),#473);
#469 = LINE('',#470,#471);
#470 = CARTESIAN_POINT('',(6.283185307188,-3.14159265359));
#471 = VECTOR('',#472,1.);
#472 = DIRECTION('',(1.026258977571E-13,1.));
#473 = ( GEOMETRIC_REPRESENTATION_CONTEXT(2) 
PARAMETRIC_REPRESENTATION_CONTEXT() REPRESENTATION_CONTEXT('2D SPACE',''
  ) );
#474 = ORIENTED_EDGE('',*,*,#475,.T.);
#475 = EDGE_CURVE('',#452,#452,#476,.T.);
#476 = SURFACE_CURVE('',#477,(#482,#489),.PCURVE_S1.);
#477 = CIRCLE('',#478,10.800000000254);
#478 = AXIS2_PLACEMENT_3D('',#479,#480,#481);
#479 = CARTESIAN_POINT('',(-544.786,-414.4999999997,445.));
#480 = DIRECTION('',(-1.,0.,0.));
#481 = DIRECTION('',(-0.,-0.999909669897,-1.344068620339E-02));
#482 = PCURVE('',#412,#483);
#483 = DEFINITIONAL_REPRESENTATION('',(#484),#488);
#484 = LINE('',#485,#486);
#485 = CARTESIAN_POINT('',(6.283185307188,1.570796326795));
#486 = VECTOR('',#487,1.);
#487 = DIRECTION('',(-1.,-3.287447176021E-12));
#488 = ( GEOMETRIC_REPRESENTATION_CONTEXT(2) 
PARAMETRIC_REPRESENTATION_CONTEXT() REPRESENTATION_CONTEXT('2D SPACE',''
  ) );
#489 = PCURVE('',#490,#495);
#490 = PLANE('',#491);
#491 = AXIS2_PLACEMENT_3D('',#492,#493,#494);
#492 = CARTESIAN_POINT('',(-544.786,-414.5,445.));
#493 = DIRECTION('',(1.,0.,0.));
#494 = DIRECTION('',(0.,-1.,0.));
#495 = DEFINITIONAL_REPRESENTATION('',(#496),#504);
#496 = ( BOUNDED_CURVE() B_SPLINE_CURVE(2,(#497,#498,#499,#500,#501,#502
,#503),.UNSPECIFIED.,.T.,.F.) B_SPLINE_CURVE_WITH_KNOTS((1,2,2,2,2,1),(
    -2.094395102393,0.,2.094395102393,4.188790204786,6.28318530718,
8.377580409573),.UNSPECIFIED.) CURVE() GEOMETRIC_REPRESENTATION_ITEM() 
RATIONAL_B_SPLINE_CURVE((1.,0.5,1.,0.5,1.,0.5,1.)) REPRESENTATION_ITEM(
  '') );
#497 = CARTESIAN_POINT('',(10.799024434892,0.145159410999));
#498 = CARTESIAN_POINT('',(11.050447909941,-18.55929958285));
#499 = CARTESIAN_POINT('',(-5.273800480302,-9.424809202427));
#500 = CARTESIAN_POINT('',(-21.59804887054,-0.290318822001));
#501 = CARTESIAN_POINT('',(-5.525223955351,9.279649791424));
#502 = CARTESIAN_POINT('',(10.547600959843,18.849618404849));
#503 = CARTESIAN_POINT('',(10.799024434892,0.145159410999));
#504 = ( GEOMETRIC_REPRESENTATION_CONTEXT(2) 
PARAMETRIC_REPRESENTATION_CONTEXT() REPRESENTATION_CONTEXT('2D SPACE',''
  ) );
#505 = ORIENTED_EDGE('',*,*,#449,.F.);
#506 = ORIENTED_EDGE('',*,*,#507,.T.);
#507 = EDGE_CURVE('',#450,#348,#508,.T.);
#508 = SURFACE_CURVE('',#509,(#514,#521),.PCURVE_S1.);
#509 = CIRCLE('',#510,11.);
#510 = AXIS2_PLACEMENT_3D('',#511,#512,#513);
#511 = CARTESIAN_POINT('',(-544.985999999,-414.5,445.));
#512 = DIRECTION('',(1.,0.,0.));
#513 = DIRECTION('',(-0.,0.,1.));
#514 = PCURVE('',#412,#515);
#515 = DEFINITIONAL_REPRESENTATION('',(#516),#520);
#516 = LINE('',#517,#518);
#517 = CARTESIAN_POINT('',(-1.584237417691,4.999947123006E-09));
#518 = VECTOR('',#519,1.);
#519 = DIRECTION('',(1.,-8.898107094452E-22));
#520 = ( GEOMETRIC_REPRESENTATION_CONTEXT(2) 
PARAMETRIC_REPRESENTATION_CONTEXT() REPRESENTATION_CONTEXT('2D SPACE',''
  ) );
#521 = PCURVE('',#69,#522);
#522 = DEFINITIONAL_REPRESENTATION('',(#523),#527);
#523 = LINE('',#524,#525);
#524 = CARTESIAN_POINT('',(-1.570796326795,2.425000001));
#525 = VECTOR('',#526,1.);
#526 = DIRECTION('',(1.,0.));
#527 = ( GEOMETRIC_REPRESENTATION_CONTEXT(2) 
PARAMETRIC_REPRESENTATION_CONTEXT() REPRESENTATION_CONTEXT('2D SPACE',''
  ) );
#528 = ORIENTED_EDGE('',*,*,#424,.T.);
#529 = ORIENTED_EDGE('',*,*,#395,.T.);
#530 = ORIENTED_EDGE('',*,*,#531,.T.);
#531 = EDGE_CURVE('',#373,#450,#532,.T.);
#532 = SURFACE_CURVE('',#533,(#538,#545),.PCURVE_S1.);
#533 = CIRCLE('',#534,11.);
#534 = AXIS2_PLACEMENT_3D('',#535,#536,#537);
#535 = CARTESIAN_POINT('',(-544.985999999,-414.5,445.));
#536 = DIRECTION('',(1.,0.,0.));
#537 = DIRECTION('',(-0.,0.,1.));
#538 = PCURVE('',#412,#539);
#539 = DEFINITIONAL_REPRESENTATION('',(#540),#544);
#540 = LINE('',#541,#542);
#541 = CARTESIAN_POINT('',(4.698947889476,4.999947123246E-09));
#542 = VECTOR('',#543,1.);
#543 = DIRECTION('',(1.,-1.567453889349E-19));
#544 = ( GEOMETRIC_REPRESENTATION_CONTEXT(2) 
PARAMETRIC_REPRESENTATION_CONTEXT() REPRESENTATION_CONTEXT('2D SPACE',''
  ) );
#545 = PCURVE('',#69,#546);
#546 = DEFINITIONAL_REPRESENTATION('',(#547),#551);
#547 = LINE('',#548,#549);
#548 = CARTESIAN_POINT('',(-1.570796326795,2.425000001));
#549 = VECTOR('',#550,1.);
#550 = DIRECTION('',(1.,0.));
#551 = ( GEOMETRIC_REPRESENTATION_CONTEXT(2) 
PARAMETRIC_REPRESENTATION_CONTEXT() REPRESENTATION_CONTEXT('2D SPACE',''
  ) );
#552 = ADVANCED_FACE('',(#553),#490,.T.);
#553 = FACE_BOUND('',#554,.T.);
#554 = EDGE_LOOP('',(#555));
#555 = ORIENTED_EDGE('',*,*,#475,.F.);
#556 = ADVANCED_FACE('',(#557),#190,.F.);
#557 = FACE_BOUND('',#558,.F.);
#558 = EDGE_LOOP('',(#559,#560,#561,#562));
#559 = ORIENTED_EDGE('',*,*,#157,.F.);
#560 = ORIENTED_EDGE('',*,*,#220,.F.);
#561 = ORIENTED_EDGE('',*,*,#254,.F.);
#562 = ORIENTED_EDGE('',*,*,#312,.F.);
#563 = ADVANCED_FACE('',(#564),#69,.T.);
#564 = FACE_BOUND('',#565,.T.);
#565 = EDGE_LOOP('',(#566,#567,#568,#569,#570,#571));
#566 = ORIENTED_EDGE('',*,*,#347,.T.);
#567 = ORIENTED_EDGE('',*,*,#507,.F.);
#568 = ORIENTED_EDGE('',*,*,#531,.F.);
#569 = ORIENTED_EDGE('',*,*,#372,.F.);
#570 = ORIENTED_EDGE('',*,*,#52,.T.);
#571 = ORIENTED_EDGE('',*,*,#134,.T.);
#572 = ( GEOMETRIC_REPRESENTATION_CONTEXT(3) 
GLOBAL_UNCERTAINTY_ASSIGNED_CONTEXT((#576)) GLOBAL_UNIT_ASSIGNED_CONTEXT
((#573,#574,#575)) REPRESENTATION_CONTEXT('Context #1',
  '3D Context with UNIT and UNCERTAINTY') );
#573 = ( LENGTH_UNIT() NAMED_UNIT(*) SI_UNIT(.MILLI.,.METRE.) );
#574 = ( NAMED_UNIT(*) PLANE_ANGLE_UNIT() SI_UNIT($,.RADIAN.) );
#575 = ( NAMED_UNIT(*) SI_UNIT($,.STERADIAN.) SOLID_ANGLE_UNIT() );
#576 = UNCERTAINTY_MEASURE_WITH_UNIT(LENGTH_MEASURE(2.E-06),#573,
  'distance_accuracy_value','confusion accuracy');
#577 = PRODUCT_RELATED_PRODUCT_CATEGORY('part',$,(#7));
ENDSEC;
END-ISO-10303-21;
